<svg width="526.8" height="134" viewBox="10 -3 546.8 140" xmlns="http://www.w3.org/2000/svg" xmlns:xlink="http://www.w3.org/1999/xlink">
  <defs>
    <g id="sheet">
      <rect x="0" y="0" rx="2" ry="2" width="75" height="107" class="sheet" />
    </g>

    <g id="sheet__lines">
      <path d="M 15 21.4 l 45 0" class="sheet__line" />
      <path d="M 15 42.8 l 45 0" class="sheet__line" />
      <path d="M 15 64.2 l 45 0" class="sheet__line" />
      <path d="M 15 85.6 l 45 0" class="sheet__line" />
    </g>

    <mask id="sheet-mask" width="81" height="113">
      <rect x="-3" y="-3"  width="81" height="113" style="stroke: none; fill: #fff"/>
      <rect x="-3" y="-3" width="65" height="97" style="stroke: none; fill: #222"/>
    </mask>
  </defs>

  <style>
    .sheet { stroke-width: 6; fill: none; }
    .sheet--red { stroke: #cc5545; }
    .sheet--yellow { stroke: #f0b81c; }
    .sheet--green { stroke: #489a61; }
    .sheet__line { stroke-width: 4.5; fill: none; }
    .caption { stroke: none; fill: #cc5545; }
    .caption--green { fill: #489a61 !important; }
    .caption--yellow { fill: #f0b81c !important; }
  </style>

  <g transform="translate(19.5, 3.5)">
    <g class="sheet--green" transform="translate(20, 20)">
      <use x="0" y="0" xlink:href="#sheet" mask="url(#sheet-mask)" />
    </g>

    <g class="sheet--yellow" transform="translate(10, 10)">
      <use x="0" y="0" xlink:href="#sheet" mask="url(#sheet-mask)" />
    </g>

    <g class="sheet--red">
      <use x="0" y="0" xlink:href="#sheet" />
      <use x="0" y="0" xlink:href="#sheet__lines" />
    </g>
  </g>

  <!-- Font is "Saira Condensed", weight 700 -->
  <g transform="translate(134, 33.5)" stroke-linecap="round" fill-rule="evenodd" class="caption">
    <path d="M 32.7 6.3 L 32.7 17.5 A 156.935 156.935 0 0 0 29.975 17.194 Q 26.15 16.8 23.9 16.8 Q 19.98 16.8 17.921 17.598 A 5.136 5.136 0 0 0 16.85 18.15 Q 15.123 19.346 14.494 22.934 A 19.896 19.896 0 0 0 14.35 23.9 A 46.212 46.212 0 0 0 14.116 26.454 Q 13.831 30.659 13.803 38.239 A 456.607 456.607 0 0 0 13.8 39.9 A 386.452 386.452 0 0 0 13.832 45.096 Q 13.933 52.566 14.35 55.9 A 17.366 17.366 0 0 0 14.712 57.908 Q 15.387 60.637 16.85 61.65 Q 18.42 62.737 22.031 62.949 A 31.994 31.994 0 0 0 23.9 63 Q 28.5 63 32.9 62.3 L 32.9 73.4 A 21.792 21.792 0 0 1 31.229 73.877 Q 30.413 74.078 29.468 74.259 A 50.302 50.302 0 0 1 27.45 74.6 A 46.149 46.149 0 0 1 23.399 75.03 A 38.472 38.472 0 0 1 21.1 75.1 Q 12.609 75.1 8.198 72.57 A 11.423 11.423 0 0 1 7.3 72 Q 3.49 69.316 1.892 63.556 A 26.541 26.541 0 0 1 1.45 61.7 A 54.52 54.52 0 0 1 0.749 57.065 Q 0 50.394 0 39.9 Q 0 25.4 1.5 18.15 Q 3 10.9 7.45 7.8 A 14.308 14.308 0 0 1 11.25 5.976 Q 14.87 4.806 20.134 4.709 A 52.39 52.39 0 0 1 21.1 4.7 Q 24.4 4.7 27.65 5.15 A 39.178 39.178 0 0 1 29.54 5.456 Q 31.463 5.819 32.7 6.3 Z" />
    <path d="M 63.4 74.3 L 63.4 46.7 A 215.294 215.294 0 0 0 63.383 43.835 Q 63.331 40.017 63.132 38.176 A 16.797 16.797 0 0 0 63.1 37.9 Q 62.8 35.5 61.9 34.85 A 2.442 2.442 0 0 0 61.267 34.536 Q 60.588 34.301 59.505 34.23 A 15.519 15.519 0 0 0 58.5 34.2 A 10.753 10.753 0 0 0 57.297 34.262 Q 55.638 34.45 54.85 35.2 A 3.099 3.099 0 0 0 54.242 36.045 Q 53.812 36.886 53.596 38.229 A 14.435 14.435 0 0 0 53.5 38.95 A 34.37 34.37 0 0 0 53.369 40.559 Q 53.218 43.033 53.202 47.195 A 262.777 262.777 0 0 0 53.2 48.2 L 53.2 74.3 L 40.3 74.3 L 40.3 0 L 53.2 0 L 53.2 29.2 L 53.9 29.2 A 11.386 11.386 0 0 1 55.078 26.757 A 7.918 7.918 0 0 1 58.05 24 Q 60.9 22.5 64.9 22.5 Q 69.7 22.5 72.15 24.4 Q 74.6 26.3 75.45 30.1 Q 76.218 33.533 76.292 39.332 A 99.128 99.128 0 0 1 76.3 40.6 L 76.3 74.3 L 63.4 74.3 Z" />
    <path d="M 85.3 74.3 L 85.3 23.3 L 97.5 23.3 L 97.9 31.7 L 98.7 31.7 A 21.869 21.869 0 0 1 99.705 28.895 Q 101.031 25.906 103 24.5 Q 105.349 22.822 109.035 22.552 A 20.04 20.04 0 0 1 110.5 22.5 L 110.5 36 A 25.352 25.352 0 0 0 107.746 36.14 Q 106.397 36.288 105.271 36.592 A 10.652 10.652 0 0 0 103.35 37.3 A 7.314 7.314 0 0 0 100.319 40.112 A 10.461 10.461 0 0 0 99.45 41.9 Q 98.255 45.054 98.203 50.585 A 54.089 54.089 0 0 0 98.2 51.1 L 98.2 74.3 L 85.3 74.3 Z" />
    <path d="M 121.3 72.9 A 10.759 10.759 0 0 0 122.75 73.592 Q 126.58 75.1 133.7 75.1 A 58.902 58.902 0 0 0 136.25 75.047 Q 142.889 74.759 146.1 72.9 Q 149.9 70.7 151 65.5 A 34.939 34.939 0 0 0 151.475 62.559 Q 151.893 59.158 152.031 54.156 A 194.158 194.158 0 0 0 152.1 48.8 A 194.835 194.835 0 0 0 152.033 43.521 Q 151.897 38.508 151.481 35.094 A 35.141 35.141 0 0 0 151 32.1 A 14.321 14.321 0 0 0 150.109 29.277 A 9.586 9.586 0 0 0 146.1 24.7 A 10.759 10.759 0 0 0 144.65 24.008 Q 140.82 22.5 133.7 22.5 A 58.902 58.902 0 0 0 131.15 22.553 Q 124.511 22.841 121.3 24.7 Q 117.5 26.9 116.4 32.1 A 34.939 34.939 0 0 0 115.925 35.041 Q 115.3 40.13 115.3 48.8 A 194.835 194.835 0 0 0 115.367 54.079 Q 115.571 61.58 116.4 65.5 A 14.321 14.321 0 0 0 117.291 68.323 A 9.586 9.586 0 0 0 121.3 72.9 Z M 133.7 64.3 A 14.644 14.644 0 0 0 135.015 64.245 Q 136.285 64.13 137.055 63.773 A 2.57 2.57 0 0 0 137.65 63.4 Q 138.7 62.5 138.95 59.65 A 41.134 41.134 0 0 0 139.054 58.031 Q 139.166 55.653 139.192 51.505 A 427.913 427.913 0 0 0 139.2 48.8 A 403.988 403.988 0 0 0 139.186 45.333 Q 139.142 40.132 138.95 37.95 Q 138.7 35.1 137.65 34.2 A 2.781 2.781 0 0 0 136.839 33.735 Q 135.717 33.3 133.7 33.3 A 14.644 14.644 0 0 0 132.385 33.355 Q 131.115 33.47 130.345 33.827 A 2.57 2.57 0 0 0 129.75 34.2 Q 128.7 35.1 128.45 37.95 A 41.134 41.134 0 0 0 128.347 39.569 Q 128.234 41.947 128.208 46.095 A 427.913 427.913 0 0 0 128.2 48.8 A 403.988 403.988 0 0 0 128.214 52.267 Q 128.259 57.468 128.45 59.65 Q 128.7 62.5 129.75 63.4 A 2.781 2.781 0 0 0 130.562 63.865 Q 131.684 64.3 133.7 64.3 Z" />
    <path d="M 205 74.3 L 205 46.7 A 208.958 208.958 0 0 0 204.982 43.832 Q 204.926 39.797 204.7 37.95 A 12.572 12.572 0 0 0 204.543 36.964 Q 204.214 35.358 203.55 34.85 A 2.32 2.32 0 0 0 202.918 34.521 Q 202.263 34.288 201.231 34.224 A 13.5 13.5 0 0 0 200.4 34.2 Q 198 34.2 197 35.2 Q 196.122 36.078 195.822 38.229 A 14.087 14.087 0 0 0 195.75 38.85 A 37.511 37.511 0 0 0 195.641 40.421 Q 195.515 42.879 195.502 47.164 A 333.881 333.881 0 0 0 195.5 48.2 L 195.5 74.3 L 182.6 74.3 L 182.6 46.7 A 208.958 208.958 0 0 0 182.582 43.832 Q 182.526 39.797 182.3 37.95 A 12.572 12.572 0 0 0 182.143 36.964 Q 181.814 35.358 181.15 34.85 A 2.249 2.249 0 0 0 180.549 34.536 Q 179.625 34.2 177.9 34.2 A 9.039 9.039 0 0 0 176.743 34.268 Q 175.251 34.462 174.55 35.2 Q 173.747 36.045 173.409 38.139 A 15.865 15.865 0 0 0 173.3 38.95 A 34.37 34.37 0 0 0 173.169 40.559 Q 173.018 43.033 173.002 47.195 A 262.777 262.777 0 0 0 173 48.2 L 173 74.3 L 160.1 74.3 L 160.1 23.3 L 172.3 23.3 L 172.7 29.4 L 173.4 29.4 A 13.689 13.689 0 0 1 174.693 26.922 Q 175.683 25.442 176.984 24.504 A 8.193 8.193 0 0 1 177.6 24.1 A 10.693 10.693 0 0 1 180.568 22.925 Q 181.893 22.606 183.442 22.527 A 20.582 20.582 0 0 1 184.5 22.5 A 19.72 19.72 0 0 1 187.077 22.657 Q 188.367 22.828 189.422 23.183 A 7.961 7.961 0 0 1 191.4 24.15 A 7.385 7.385 0 0 1 193.721 26.797 Q 194.334 27.937 194.7 29.4 L 195.5 29.4 Q 196.9 25.7 199.7 24.1 Q 202.227 22.656 205.893 22.515 A 21.003 21.003 0 0 1 206.7 22.5 Q 209.651 22.5 211.696 23.261 A 7.596 7.596 0 0 1 213.7 24.35 A 8.234 8.234 0 0 1 215.974 27.124 Q 216.54 28.212 216.901 29.56 A 15.168 15.168 0 0 1 217 29.95 A 26.169 26.169 0 0 1 217.475 32.562 Q 217.84 35.286 217.892 38.969 A 88.242 88.242 0 0 1 217.9 40.2 L 217.9 74.3 L 205 74.3 Z" />
    <path d="M 239.9 74.3 L 227 74.3 L 227 23.3 L 239.9 23.3 L 239.9 74.3 Z M 240 12.2 L 226.9 12.2 L 226.9 0 L 240 0 L 240 12.2 Z" />
        <path d="M 275.7 23.9 L 275.7 33.9 A 100.299 100.299 0 0 0 273.011 33.584 Q 270.256 33.3 268.4 33.3 Q 265.575 33.3 264.043 33.916 A 4.08 4.08 0 0 0 263.3 34.3 Q 261.896 35.236 261.368 38.012 A 14.067 14.067 0 0 0 261.3 38.4 A 26.549 26.549 0 0 0 261.081 40.212 Q 260.8 43.325 260.8 48.8 Q 260.8 54.285 261.102 57.407 A 24.525 24.525 0 0 0 261.35 59.299 Q 261.824 61.97 263.003 63.045 A 2.863 2.863 0 0 0 263.4 63.35 Q 264.9 64.3 268.5 64.3 A 30.843 30.843 0 0 0 270.104 64.253 Q 272.406 64.131 276 63.7 L 276 73.6 A 36.629 36.629 0 0 1 269.234 74.889 A 45.348 45.348 0 0 1 264.8 75.1 A 31.379 31.379 0 0 1 260.938 74.879 Q 256.568 74.335 254.009 72.457 A 9.271 9.271 0 0 1 253.8 72.3 Q 250.2 69.5 249.05 64.1 Q 248.012 59.225 247.911 50.683 A 159.388 159.388 0 0 1 247.9 48.8 A 127.002 127.002 0 0 1 248.016 43.176 Q 248.281 37.224 249.15 33.4 Q 250.4 27.9 254 25.2 Q 257.6 22.5 264.7 22.5 A 54.972 54.972 0 0 1 268.696 22.637 Q 270.754 22.787 272.505 23.103 A 23.073 23.073 0 0 1 275.7 23.9 Z" />
    <path d="M 283.8 74.3 L 283.8 5.5 L 306.5 5.5 Q 313.8 5.5 317.55 8.1 A 12.273 12.273 0 0 1 322.054 13.947 A 16.247 16.247 0 0 1 322.6 15.65 A 33.136 33.136 0 0 1 323.34 19.437 Q 323.9 23.419 323.9 28.8 A 85.267 85.267 0 0 1 323.758 33.883 Q 323.614 36.283 323.325 38.325 A 35.039 35.039 0 0 1 322.7 41.65 A 14.328 14.328 0 0 1 320.711 46.287 A 12.908 12.908 0 0 1 317.7 49.45 Q 314.986 51.486 310.383 52.067 A 31.856 31.856 0 0 1 306.4 52.3 L 297.6 52.3 L 297.6 74.3 L 283.8 74.3 Z M 297.6 40.2 L 303 40.2 Q 305.655 40.2 307.09 39.712 A 4.07 4.07 0 0 0 307.8 39.4 Q 308.967 38.733 309.474 37.059 A 7.572 7.572 0 0 0 309.65 36.35 Q 310.1 34.1 310.1 28.8 Q 310.1 23.511 309.652 21.309 A 9.221 9.221 0 0 0 309.65 21.3 Q 309.2 19.1 307.85 18.35 A 4.276 4.276 0 0 0 306.929 17.987 Q 305.987 17.724 304.557 17.64 A 24.843 24.843 0 0 0 303.1 17.6 L 297.6 17.6 L 297.6 40.2 Z" />
    <path d="M 331.3 74.3 L 331.3 5.5 L 349.9 5.5 Q 358.431 5.5 363.043 7.411 A 12.419 12.419 0 0 1 365.05 8.45 A 11.956 11.956 0 0 1 369.671 14.197 A 18.039 18.039 0 0 1 370.7 17.95 A 53.999 53.999 0 0 1 371.181 21.778 Q 371.597 26.194 371.733 32.856 A 345.598 345.598 0 0 1 371.8 39.9 A 344.332 344.332 0 0 1 371.731 47.047 Q 371.593 53.692 371.175 58.09 A 53.652 53.652 0 0 1 370.7 61.85 A 17.715 17.715 0 0 1 369.536 65.928 A 11.872 11.872 0 0 1 365.05 71.35 Q 361.198 73.848 353.008 74.231 A 66.634 66.634 0 0 1 349.9 74.3 L 331.3 74.3 Z M 345 62.2 L 349.7 62.2 Q 354.081 62.2 355.637 61.159 A 2.841 2.841 0 0 0 355.65 61.15 A 2.942 2.942 0 0 0 356.502 60.202 Q 357.339 58.804 357.65 55.9 A 49.774 49.774 0 0 0 357.836 53.514 Q 358.038 50.008 358.086 43.89 A 517.166 517.166 0 0 0 358.1 39.9 Q 358.1 29.775 357.726 25.229 A 37.104 37.104 0 0 0 357.6 23.95 A 21 21 0 0 0 357.333 22.244 Q 356.772 19.47 355.6 18.65 Q 354.111 17.608 349.767 17.6 A 36.652 36.652 0 0 0 349.7 17.6 L 345 17.6 L 345 62.2 Z" class="caption--yellow" />
    <path d="M 394.7 74.3 L 380.9 74.3 L 380.9 5.5 L 412.8 5.5 L 412.8 17.6 L 394.7 17.6 L 394.7 35.1 L 410.6 35.1 L 410.6 47.2 L 394.7 47.2 L 394.7 74.3 Z" class="caption--green" />
  </g>
</svg>
